<?xml version="1.0" encoding="UTF-8"?>
<svg width="36px" height="48px" viewBox="0 0 36 48" version="1.1" xmlns="http://www.w3.org/2000/svg" xmlns:xlink="http://www.w3.org/1999/xlink">
    <!-- Generator: Sketch 53.2 (72643) - https://sketchapp.com -->
    <title>Location pin</title>
    <desc>Created with Sketch.</desc>
    <defs>
        <polygon id="path-1" points="8.64e-05 0.0734254545 35.9450784 0.0734254545 35.9450784 47.7090909 8.64e-05 47.7090909"></polygon>
    </defs>
    <g id="Page-1" stroke="none" stroke-width="1" fill="none" fill-rule="evenodd">
        <g id="iconography-on-dark" transform="translate(-234.000000, -515.000000)">
            <g id="Location-pin" transform="translate(234.000000, 515.000000)">
                <g id="Group-3" transform="translate(0.000000, 0.217600)">
                    <mask id="mask-2" fill="white">
                        <use xlink:href="#path-1"></use>
                    </mask>
                    <g id="Clip-2"></g>
                    <path d="M17.9724384,2.98251636 C9.6503904,2.98251636 2.8800864,9.82149818 2.8800864,18.2276073 C2.8800864,22.8734255 5.3188704,29.4020073 9.4044384,35.6917527 C13.5340704,42.0495709 17.0767584,44.8001164 17.9724384,44.8001164 C18.8681184,44.8001164 22.4110944,42.0495709 26.5407264,35.6917527 C30.6262944,29.4022982 33.0650784,22.8734255 33.0650784,18.2276073 C33.0650784,9.82149818 26.2944864,2.98251636 17.9724384,2.98251636 M17.9724384,47.7092073 C14.8672224,47.7092073 10.1189664,42.0952436 6.9964704,37.28768 C4.8929184,34.04928 8.64e-05,25.7086255 8.64e-05,18.2276073 C8.64e-05,8.21742545 8.0623584,0.0734254545 17.9724384,0.0734254545 C27.8825184,0.0734254545 35.9450784,8.21742545 35.9450784,18.2276073 C35.9450784,25.7086255 31.0522464,34.04928 28.9486944,37.28768 C25.8261984,42.0952436 21.0776544,47.7092073 17.9724384,47.7092073" id="Fill-1" fill="#CE4B27" mask="url(#mask-2)"></path>
                </g>
                <path d="M17.9679456,12.3065309 C14.7023136,12.3065309 12.0458016,14.9901673 12.0458016,18.2887855 C12.0458016,21.5874036 14.7023136,24.2707491 17.9679456,24.2707491 C21.2335776,24.2707491 23.8900896,21.5874036 23.8900896,18.2887855 C23.8900896,14.9901673 21.2335776,12.3065309 17.9679456,12.3065309 M17.9679456,27.17984 C13.1142816,27.17984 9.1658016,23.1914764 9.1658016,18.2887855 C9.1658016,13.3860945 13.1142816,9.39744 17.9679456,9.39744 C22.8216096,9.39744 26.7700896,13.3860945 26.7700896,18.2887855 C26.7700896,23.1914764 22.8216096,27.17984 17.9679456,27.17984" id="Fill-4" fill="#CE4B27"></path>
            </g>
        </g>
    </g>
</svg>