<?xml version="1.0" encoding="UTF-8"?>
<svg width="57px" height="76px" viewBox="0 0 57 76" version="1.1" xmlns="http://www.w3.org/2000/svg" xmlns:xlink="http://www.w3.org/1999/xlink">
    <!-- Generator: Sketch 53.2 (72643) - https://sketchapp.com -->
    <title>Group 4</title>
    <desc>Created with Sketch.</desc>
    <defs>
        <polygon id="path-1" points="6.70586148 25.1472109 50.6666667 25.1472109 45.9166667 72.2982313 11.8283896 72.2982313"/>
        <polygon id="path-3" points="0 0.406572608 56.6161596 0.406572608 56.6161596 17.0370457 0 17.0370457"/>
    </defs>
    <g id="Page-1" stroke="none" stroke-width="1" fill="none" fill-rule="evenodd">
        <g id="iconography-on-dark-copy" transform="translate(-840.000000, -115.000000)">
            <g id="Group-4" transform="translate(840.000000, 115.000000)">
                <g id="Group-3" transform="translate(0.000000, 0.000000)">
                    <path d="M5.38124468,14.0079692 C4.64307447,14.0079692 4.04235106,14.6205265 4.04235106,15.3737452 L4.04235106,20.5728513 C4.04235106,21.3260699 4.64307447,22.2277023 5.38124468,22.2277023 L8.55060638,22.2277023 L13.4570532,69.5399003 C13.5399255,70.343031 14.2000745,70.9494009 14.9924149,70.9494009 L42.1446277,70.9494009 C42.9389894,70.9494009 43.5995426,70.341381 43.6807979,69.5349503 L48.4663723,22.2277023 L51.2355213,22.2277023 C51.9732872,22.2277023 52.5736064,21.3260699 52.5736064,20.5728513 L52.5736064,15.3737452 C52.5736064,14.6205265 51.9732872,14.0079692 51.2355213,14.0079692 L47.9016277,14.0079692 L47.9016277,8.41822891 C47.9016277,7.74792207 47.3340532,7.36058784 46.7927553,7.27561356 L10.0887979,4.35060076 C9.68494681,4.3221385 9.39388298,4.52838676 9.26088298,4.6541982 C9.12788298,4.78042213 8.90473404,5.0567948 8.90473404,5.48867865 L8.90473404,14.0079692 L5.38124468,14.0079692 Z M14.9924149,75.074366 C12.1262447,75.074366 9.73709574,72.8807095 9.43632979,69.9717841 L4.90867021,26.0429676 C2.16175532,25.7979446 -0.000202127659,23.4380521 -0.000202127659,20.5728513 L-0.000202127659,15.3737452 C-0.000202127659,12.5246317 2.13790426,10.1754641 4.86218085,9.90857882 L4.86218085,5.48867865 C4.86218085,4.03174095 5.46128723,2.62760281 6.50628723,1.63513619 C7.55088298,0.642669573 8.96698936,0.134886361 10.3907766,0.237185497 L47.2649255,3.17828566 C49.976266,3.53097018 51.9441809,5.73452657 51.9441809,8.41822891 L51.9441809,9.93044114 C54.5775,10.2856006 56.6161596,12.5910437 56.6161596,15.3737452 L56.6161596,20.5728513 C56.6161596,23.2920283 54.669266,25.5562217 52.123266,25.9889305 L47.7019255,69.9565217 C47.4080319,72.8745221 45.018883,75.074366 42.1446277,75.074366 L14.9924149,75.074366 Z" id="Fill-1" fill="#CE4B27"/>
                    <mask id="mask-2" fill="white">
                        <use xlink:href="#path-1"/>
                    </mask>
                    <g id="Clip-2"/>
                    <path d="M22.1666667,9.43020408 C15.8333333,18.5236152 7.91666667,31.9396449 14.25,44.2882799 C20.5833333,56.6369149 22.1666667,60.1084053 19,70.0529446 C15.8333333,79.9974839 15.1209113,86.7241983 20.5833333,94.3020408" id="Path-3" stroke="#CE4B27" stroke-width="1.57170068" mask="url(#mask-2)" transform="translate(17.044139, 51.866122) rotate(5.000000) translate(-17.044139, -51.866122) "/>
                    <path d="M13.411723,9.43020408 C7.07838963,18.5236152 -0.838277032,31.9396449 5.4950563,44.2882799 C11.8283896,56.6369149 13.411723,60.1084053 10.2450563,70.0529446 C7.07838963,79.9974839 6.36596763,86.7241983 11.8283896,94.3020408" id="Path-3-Copy-6" stroke="#CE4B27" stroke-width="1.57170068" mask="url(#mask-2)"/>
                    <path d="M30.8283896,9.43020408 C24.4950563,18.5236152 16.5783896,31.9396449 22.911723,44.2882799 C29.2450563,56.6369149 30.8283896,60.1084053 27.661723,70.0529446 C24.4950563,79.9974839 23.7826343,86.7241983 29.2450563,94.3020408" id="Path-3-Copy" stroke="#CE4B27" stroke-width="1.57170068" mask="url(#mask-2)" transform="translate(25.705861, 51.866122) rotate(5.000000) translate(-25.705861, -51.866122) "/>
                    <path d="M40.3283896,9.43020408 C33.9950563,18.5236152 26.0783896,31.9396449 32.411723,44.2882799 C38.7450563,56.6369149 40.3283896,60.1084053 37.161723,70.0529446 C33.9950563,79.9974839 33.2826343,86.7241983 38.7450563,94.3020408" id="Path-3-Copy-3" stroke="#CE4B27" stroke-width="1.57170068" mask="url(#mask-2)" transform="translate(35.205861, 51.866122) rotate(5.000000) translate(-35.205861, -51.866122) "/>
                    <path d="M49.8283896,9.43020408 C43.4950563,18.5236152 35.5783896,31.9396449 41.911723,44.2882799 C48.2450563,56.6369149 49.8283896,60.1084053 46.661723,70.0529446 C43.4950563,79.9974839 42.7826343,86.7241983 48.2450563,94.3020408" id="Path-3-Copy-4" stroke="#CE4B27" stroke-width="1.57170068" mask="url(#mask-2)" transform="translate(44.705861, 51.866122) rotate(5.000000) translate(-44.705861, -51.866122) "/>
                    <path d="M59.3283896,9.43020408 C52.9950563,18.5236152 45.0783896,31.9396449 51.411723,44.2882799 C57.7450563,56.6369149 59.3283896,60.1084053 56.161723,70.0529446 C52.9950563,79.9974839 52.2826343,86.7241983 57.7450563,94.3020408" id="Path-3-Copy-5" stroke="#CE4B27" stroke-width="1.57170068" mask="url(#mask-2)"/>
                </g>
                <g id="Group-6" transform="translate(0.000000, 9.430204)">
                    <mask id="mask-4" fill="white">
                        <use xlink:href="#path-3"/>
                    </mask>
                    <g id="Clip-5"/>
                    <path d="M5.38124468,4.64612014 C4.64307447,4.64612014 4.04235106,5.27569295 4.04235106,6.04983433 L4.04235106,11.39336 C4.04235106,12.1675014 4.64307447,12.7974982 5.38124468,12.7974982 L51.2355213,12.7974982 C51.9732872,12.7974982 52.5736064,12.1675014 52.5736064,11.39336 L52.5736064,6.04983433 C52.5736064,5.27569295 51.9732872,4.64612014 51.2355213,4.64612014 L5.38124468,4.64612014 Z M5.38124468,17.0370457 C2.41401064,17.0370457 -0.00020212766,14.5051879 -0.00020212766,11.39336 L-0.00020212766,6.04983433 C-0.00020212766,2.93800644 2.41401064,0.406572608 5.38124468,0.406572608 L51.2355213,0.406572608 C54.2027553,0.406572608 56.6161596,2.93800644 56.6161596,6.04983433 L56.6161596,11.39336 C56.6161596,14.5051879 54.2027553,17.0370457 51.2355213,17.0370457 L5.38124468,17.0370457 Z" id="Fill-4" fill="#CE4B27" mask="url(#mask-4)"/>
                </g>
            </g>
        </g>
    </g>
</svg>