<svg width="24" height="28" viewBox="0 0 24 28" fill="none" xmlns="http://www.w3.org/2000/svg">
<g clip-path="url(#clip0_407_110858)">
<path d="M20.4152 5.61236C18.9324 4.62909 17.8631 3.05516 17.529 1.22136C17.4572 0.825244 17.4172 0.417187 17.4172 0H12.6858L12.6782 19.2917C12.5988 21.4521 10.851 23.1862 8.70895 23.1862C8.0428 23.1862 7.416 23.0169 6.86375 22.7212C5.59772 22.0435 4.73138 20.6936 4.73138 19.14C4.73138 16.9087 6.51583 15.0932 8.70826 15.0932C9.11761 15.0932 9.5104 15.162 9.88178 15.28V10.3658C9.49728 10.3124 9.10657 10.2794 8.70826 10.2794C3.90646 10.2794 0 14.2539 0 19.14C0 22.1376 1.47174 24.7903 3.71801 26.3945C5.13245 27.4051 6.8534 28 8.70895 28C13.5107 28 17.4172 24.0255 17.4172 19.14V9.35721C19.2728 10.712 21.5466 11.5106 24 11.5106V6.69677C22.6787 6.69677 21.4479 6.29714 20.4152 5.61236Z" fill="white"/>
</g>
<defs>
<clipPath id="clip0_407_110858">
<rect width="24" height="28" fill="white"/>
</clipPath>
</defs>
</svg>
